<?xml version="1.0" encoding="UTF-8"?>
<svg id="diagram-5" xmlns="http://www.w3.org/2000/svg" xmlns:xlink="http://www.w3.org/1999/xlink" class="erDiagram" style="background-color: #1E1E2E;" viewBox="0 0 283.6875 315.25" role="graphics-document document" aria-roledescription="er" width="284" height="315"><style>#diagram-5{font-family:"trebuchet ms",verdana,arial,sans-serif;font-size:16px;fill:#ccc;}@keyframes edge-animation-frame{from{stroke-dashoffset:0;}}@keyframes dash{to{stroke-dashoffset:0;}}#diagram-5 .edge-animation-slow{stroke-dasharray:9,5!important;stroke-dashoffset:900;animation:dash 50s linear infinite;stroke-linecap:round;}#diagram-5 .edge-animation-fast{stroke-dasharray:9,5!important;stroke-dashoffset:900;animation:dash 20s linear infinite;stroke-linecap:round;}#diagram-5 .error-icon{fill:#a44141;}#diagram-5 .error-text{fill:#ddd;stroke:#ddd;}#diagram-5 .edge-thickness-normal{stroke-width:1px;}#diagram-5 .edge-thickness-thick{stroke-width:3.5px;}#diagram-5 .edge-pattern-solid{stroke-dasharray:0;}#diagram-5 .edge-thickness-invisible{stroke-width:0;fill:none;}#diagram-5 .edge-pattern-dashed{stroke-dasharray:3;}#diagram-5 .edge-pattern-dotted{stroke-dasharray:2;}#diagram-5 .marker{fill:#89B4FA;stroke:#89B4FA;}#diagram-5 .marker.cross{stroke:#89B4FA;}#diagram-5 svg{font-family:"trebuchet ms",verdana,arial,sans-serif;font-size:16px;}#diagram-5 p{margin:0;}#diagram-5 .entityBox{fill:#1f2020;stroke:#ccc;}#diagram-5 .relationshipLabelBox{fill:#181825;opacity:0.7;background-color:#181825;}#diagram-5 .relationshipLabelBox rect{opacity:0.5;}#diagram-5 .labelBkg{background-color:rgba(24, 24, 37, 0.5);}#diagram-5 .edgeLabel .label{fill:#ccc;font-size:14px;}#diagram-5 .label{font-family:"trebuchet ms",verdana,arial,sans-serif;color:#CDD2EA;}#diagram-5 .edge-pattern-dashed{stroke-dasharray:8,8;}#diagram-5 .node rect,#diagram-5 .node circle,#diagram-5 .node ellipse,#diagram-5 .node polygon{fill:#1f2020;stroke:#ccc;stroke-width:1px;}#diagram-5 .relationshipLine{stroke:#89B4FA;stroke-width:1;fill:none;}#diagram-5 .marker{fill:none!important;stroke:#89B4FA!important;stroke-width:1;}#diagram-5 .edgeLabel{background-color:#313244;}#diagram-5 .edgeLabel .label rect{fill:#313244;}#diagram-5 .edgeLabel .label text{fill:#ccc;}#diagram-5 :root{--mermaid-font-family:"trebuchet ms",verdana,arial,sans-serif;}</style><g><defs><marker id="my-svg_er-onlyOneStart" class="marker onlyOne er" refX="0" refY="9" markerWidth="18" markerHeight="18" orient="auto"><path d="M9,0 L9,18 M15,0 L15,18"/></marker></defs><defs><marker id="my-svg_er-onlyOneEnd" class="marker onlyOne er" refX="18" refY="9" markerWidth="18" markerHeight="18" orient="auto"><path d="M3,0 L3,18 M9,0 L9,18"/></marker></defs><defs><marker id="my-svg_er-zeroOrOneStart" class="marker zeroOrOne er" refX="0" refY="9" markerWidth="30" markerHeight="18" orient="auto"><circle fill="white" cx="21" cy="9" r="6"/><path d="M9,0 L9,18"/></marker></defs><defs><marker id="my-svg_er-zeroOrOneEnd" class="marker zeroOrOne er" refX="30" refY="9" markerWidth="30" markerHeight="18" orient="auto"><circle fill="white" cx="9" cy="9" r="6"/><path d="M21,0 L21,18"/></marker></defs><defs><marker id="my-svg_er-oneOrMoreStart" class="marker oneOrMore er" refX="18" refY="18" markerWidth="45" markerHeight="36" orient="auto"><path d="M0,18 Q 18,0 36,18 Q 18,36 0,18 M42,9 L42,27"/></marker></defs><defs><marker id="my-svg_er-oneOrMoreEnd" class="marker oneOrMore er" refX="27" refY="18" markerWidth="45" markerHeight="36" orient="auto"><path d="M3,9 L3,27 M9,18 Q27,0 45,18 Q27,36 9,18"/></marker></defs><defs><marker id="my-svg_er-zeroOrMoreStart" class="marker zeroOrMore er" refX="18" refY="18" markerWidth="57" markerHeight="36" orient="auto"><circle fill="white" cx="48" cy="18" r="6"/><path d="M0,18 Q18,0 36,18 Q18,36 0,18"/></marker></defs><defs><marker id="my-svg_er-zeroOrMoreEnd" class="marker zeroOrMore er" refX="39" refY="18" markerWidth="57" markerHeight="36" orient="auto"><circle fill="white" cx="9" cy="18" r="6"/><path d="M21,18 Q39,0 57,18 Q39,36 21,18"/></marker></defs><g class="root"><g class="clusters"/><g class="edgePaths"/><g class="edgeLabels"/><g class="nodes"><g class="node default" id="entity-ProductionEntry-0" transform="translate(141.84375, 157.625)"><g style=""><path d="M-133.84375 -149.625 L133.84375 -149.625 L133.84375 149.625 L-133.84375 149.625" stroke="none" stroke-width="0" fill="#1f2020"/><path d="M-133.84375 -149.625 C-69.72919917930227 -149.625, -5.614648358604541 -149.625, 133.84375 -149.625 M-133.84375 -149.625 C-78.85685855441557 -149.625, -23.86996710883112 -149.625, 133.84375 -149.625 M133.84375 -149.625 C133.84375 -78.14897018559915, 133.84375 -6.672940371198308, 133.84375 149.625 M133.84375 -149.625 C133.84375 -44.92056424319479, 133.84375 59.78387151361042, 133.84375 149.625 M133.84375 149.625 C40.35019781580405 149.625, -53.1433543683919 149.625, -133.84375 149.625 M133.84375 149.625 C39.69197460071234 149.625, -54.459800798575316 149.625, -133.84375 149.625 M-133.84375 149.625 C-133.84375 70.54900060692574, -133.84375 -8.52699878614851, -133.84375 -149.625 M-133.84375 149.625 C-133.84375 53.977913421560544, -133.84375 -41.66917315687891, -133.84375 -149.625" stroke="#ccc" stroke-width="1.3" fill="none" stroke-dasharray="0 0"/></g><g style="" class="row-rect-odd"><path d="M-133.84375 -106.875 L133.84375 -106.875 L133.84375 -64.125 L-133.84375 -64.125" stroke="none" stroke-width="0" fill="hsl(180, 1.5873015873%, 17.3529411765%)"/><path d="M-133.84375 -106.875 C-38.29679306839289 -106.875, 57.250163863214226 -106.875, 133.84375 -106.875 M-133.84375 -106.875 C-34.46676804413485 -106.875, 64.9102139117303 -106.875, 133.84375 -106.875 M133.84375 -106.875 C133.84375 -97.05780749686265, 133.84375 -87.2406149937253, 133.84375 -64.125 M133.84375 -106.875 C133.84375 -90.17457292679788, 133.84375 -73.47414585359576, 133.84375 -64.125 M133.84375 -64.125 C35.77321222797809 -64.125, -62.297325544043815 -64.125, -133.84375 -64.125 M133.84375 -64.125 C28.383505644703007 -64.125, -77.07673871059399 -64.125, -133.84375 -64.125 M-133.84375 -64.125 C-133.84375 -74.91248761987138, -133.84375 -85.69997523974277, -133.84375 -106.875 M-133.84375 -64.125 C-133.84375 -77.78467494279003, -133.84375 -91.44434988558008, -133.84375 -106.875" stroke="#ccc" stroke-width="1.3" fill="none" stroke-dasharray="0 0"/></g><g style="" class="row-rect-even"><path d="M-133.84375 -64.125 L133.84375 -64.125 L133.84375 -21.375 L-133.84375 -21.375" stroke="none" stroke-width="0" fill="hsl(180, 1.5873015873%, 2.3529411765%)"/><path d="M-133.84375 -64.125 C-75.93428308237185 -64.125, -18.024816164743683 -64.125, 133.84375 -64.125 M-133.84375 -64.125 C-41.69904478235259 -64.125, 50.445660435294826 -64.125, 133.84375 -64.125 M133.84375 -64.125 C133.84375 -47.80898098796474, 133.84375 -31.492961975929475, 133.84375 -21.375 M133.84375 -64.125 C133.84375 -51.48801499028823, 133.84375 -38.851029980576456, 133.84375 -21.375 M133.84375 -21.375 C76.59874213676659 -21.375, 19.353734273533178 -21.375, -133.84375 -21.375 M133.84375 -21.375 C41.222744186316376 -21.375, -51.39826162736725 -21.375, -133.84375 -21.375 M-133.84375 -21.375 C-133.84375 -31.102987955282707, -133.84375 -40.830975910565414, -133.84375 -64.125 M-133.84375 -21.375 C-133.84375 -36.701096341240046, -133.84375 -52.02719268248009, -133.84375 -64.125" stroke="#ccc" stroke-width="1.3" fill="none" stroke-dasharray="0 0"/></g><g style="" class="row-rect-odd"><path d="M-133.84375 -21.375 L133.84375 -21.375 L133.84375 21.375 L-133.84375 21.375" stroke="none" stroke-width="0" fill="hsl(180, 1.5873015873%, 17.3529411765%)"/><path d="M-133.84375 -21.375 C-45.226098050912896 -21.375, 43.39155389817421 -21.375, 133.84375 -21.375 M-133.84375 -21.375 C-73.67883426095614 -21.375, -13.51391852191226 -21.375, 133.84375 -21.375 M133.84375 -21.375 C133.84375 -5.939650928963282, 133.84375 9.495698142073437, 133.84375 21.375 M133.84375 -21.375 C133.84375 -10.691505552911888, 133.84375 -0.008011105823776177, 133.84375 21.375 M133.84375 21.375 C38.38067350676991 21.375, -57.08240298646018 21.375, -133.84375 21.375 M133.84375 21.375 C40.4656572965317 21.375, -52.912435406936595 21.375, -133.84375 21.375 M-133.84375 21.375 C-133.84375 11.737861215509255, -133.84375 2.100722431018511, -133.84375 -21.375 M-133.84375 21.375 C-133.84375 7.585956170590713, -133.84375 -6.203087658818575, -133.84375 -21.375" stroke="#ccc" stroke-width="1.3" fill="none" stroke-dasharray="0 0"/></g><g style="" class="row-rect-even"><path d="M-133.84375 21.375 L133.84375 21.375 L133.84375 64.125 L-133.84375 64.125" stroke="none" stroke-width="0" fill="hsl(180, 1.5873015873%, 2.3529411765%)"/><path d="M-133.84375 21.375 C-67.82166794132394 21.375, -1.7995858826478752 21.375, 133.84375 21.375 M-133.84375 21.375 C-32.03905863691057 21.375, 69.76563272617886 21.375, 133.84375 21.375 M133.84375 21.375 C133.84375 35.22523453388461, 133.84375 49.07546906776922, 133.84375 64.125 M133.84375 21.375 C133.84375 30.234828363700274, 133.84375 39.09465672740055, 133.84375 64.125 M133.84375 64.125 C53.28232642385255 64.125, -27.279097152294895 64.125, -133.84375 64.125 M133.84375 64.125 C69.11932367755594 64.125, 4.39489735511188 64.125, -133.84375 64.125 M-133.84375 64.125 C-133.84375 47.532610264754226, -133.84375 30.940220529508444, -133.84375 21.375 M-133.84375 64.125 C-133.84375 48.58987574601175, -133.84375 33.0547514920235, -133.84375 21.375" stroke="#ccc" stroke-width="1.3" fill="none" stroke-dasharray="0 0"/></g><g style="" class="row-rect-odd"><path d="M-133.84375 64.125 L133.84375 64.125 L133.84375 106.875 L-133.84375 106.875" stroke="none" stroke-width="0" fill="hsl(180, 1.5873015873%, 17.3529411765%)"/><path d="M-133.84375 64.125 C-29.42344570855508 64.125, 74.99685858288984 64.125, 133.84375 64.125 M-133.84375 64.125 C-44.72746965061717 64.125, 44.38881069876567 64.125, 133.84375 64.125 M133.84375 64.125 C133.84375 76.75529208482591, 133.84375 89.38558416965182, 133.84375 106.875 M133.84375 64.125 C133.84375 75.02391558510031, 133.84375 85.92283117020062, 133.84375 106.875 M133.84375 106.875 C62.24596079566639 106.875, -9.351828408667217 106.875, -133.84375 106.875 M133.84375 106.875 C73.8291201767701 106.875, 13.814490353540208 106.875, -133.84375 106.875 M-133.84375 106.875 C-133.84375 93.64985384117442, -133.84375 80.42470768234884, -133.84375 64.125 M-133.84375 106.875 C-133.84375 96.36325475280681, -133.84375 85.85150950561362, -133.84375 64.125" stroke="#ccc" stroke-width="1.3" fill="none" stroke-dasharray="0 0"/></g><g style="" class="row-rect-even"><path d="M-133.84375 106.875 L133.84375 106.875 L133.84375 149.625 L-133.84375 149.625" stroke="none" stroke-width="0" fill="hsl(180, 1.5873015873%, 2.3529411765%)"/><path d="M-133.84375 106.875 C-73.7139830813322 106.875, -13.58421616266439 106.875, 133.84375 106.875 M-133.84375 106.875 C-71.38937794365938 106.875, -8.935005887318766 106.875, 133.84375 106.875 M133.84375 106.875 C133.84375 121.65724059075754, 133.84375 136.43948118151508, 133.84375 149.625 M133.84375 106.875 C133.84375 122.8676037096205, 133.84375 138.860207419241, 133.84375 149.625 M133.84375 149.625 C51.90538808399231 149.625, -30.032973832015387 149.625, -133.84375 149.625 M133.84375 149.625 C57.90732310085947 149.625, -18.029103798281056 149.625, -133.84375 149.625 M-133.84375 149.625 C-133.84375 136.38264717512985, -133.84375 123.1402943502597, -133.84375 106.875 M-133.84375 149.625 C-133.84375 137.5490147006529, -133.84375 125.47302940130581, -133.84375 106.875" stroke="#ccc" stroke-width="1.3" fill="none" stroke-dasharray="0 0"/></g><g class="label name" transform="translate(-57.28125, -140.25)" style=""><foreignObject width="114.5625" height="24"><div xmlns="http://www.w3.org/1999/xhtml" style="display: table-cell; white-space: nowrap; line-height: 1.5; max-width: 208px; text-align: start;"><span class="nodeLabel"><p>ProductionEntry</p></span></div></foreignObject></g><g class="label attribute-type" transform="translate(-121.34375, -97.5)" style=""><foreignObject width="19.65625" height="24"><div xmlns="http://www.w3.org/1999/xhtml" style="display: table-cell; white-space: nowrap; line-height: 1.5; max-width: 117px; text-align: start;"><span class="nodeLabel"><p>int</p></span></div></foreignObject></g><g class="label attribute-name" transform="translate(-31.03125, -97.5)" style=""><foreignObject width="13.375" height="24"><div xmlns="http://www.w3.org/1999/xhtml" style="display: table-cell; white-space: nowrap; line-height: 1.5; max-width: 114px; text-align: start;"><span class="nodeLabel"><p>Id</p></span></div></foreignObject></g><g class="label attribute-keys" transform="translate(103.203125, -97.5)" style=""><foreignObject width="18.140625" height="24"><div xmlns="http://www.w3.org/1999/xhtml" style="display: table-cell; white-space: nowrap; line-height: 1.5; max-width: 122px; text-align: start;"><span class="nodeLabel"><p>PK</p></span></div></foreignObject></g><g class="label attribute-comment" transform="translate(146.34375, -97.5)" style=""><foreignObject width="0" height="0"><div xmlns="http://www.w3.org/1999/xhtml" style="display: table-cell; white-space: nowrap; line-height: 1.5; max-width: 100px; text-align: start;"><span class="nodeLabel"></span></div></foreignObject></g><g class="label attribute-type" transform="translate(-121.34375, -54.75)" style=""><foreignObject width="40.375" height="24"><div xmlns="http://www.w3.org/1999/xhtml" style="display: table-cell; white-space: nowrap; line-height: 1.5; max-width: 136px; text-align: start;"><span class="nodeLabel"><p>string</p></span></div></foreignObject></g><g class="label attribute-name" transform="translate(-31.03125, -54.75)" style=""><foreignObject width="96.421875" height="24"><div xmlns="http://www.w3.org/1999/xhtml" style="display: table-cell; white-space: nowrap; line-height: 1.5; max-width: 190px; text-align: start;"><span class="nodeLabel"><p>SerialNumber</p></span></div></foreignObject></g><g class="label attribute-keys" transform="translate(103.203125, -54.75)" style=""><foreignObject width="0" height="0"><div xmlns="http://www.w3.org/1999/xhtml" style="display: table-cell; white-space: nowrap; line-height: 1.5; max-width: 100px; text-align: start;"><span class="nodeLabel"></span></div></foreignObject></g><g class="label attribute-comment" transform="translate(146.34375, -54.75)" style=""><foreignObject width="0" height="0"><div xmlns="http://www.w3.org/1999/xhtml" style="display: table-cell; white-space: nowrap; line-height: 1.5; max-width: 100px; text-align: start;"><span class="nodeLabel"></span></div></foreignObject></g><g class="label attribute-type" transform="translate(-121.34375, -12)" style=""><foreignObject width="40.375" height="24"><div xmlns="http://www.w3.org/1999/xhtml" style="display: table-cell; white-space: nowrap; line-height: 1.5; max-width: 136px; text-align: start;"><span class="nodeLabel"><p>string</p></span></div></foreignObject></g><g class="label attribute-name" transform="translate(-31.03125, -12)" style=""><foreignObject width="64.046875" height="24"><div xmlns="http://www.w3.org/1999/xhtml" style="display: table-cell; white-space: nowrap; line-height: 1.5; max-width: 160px; text-align: start;"><span class="nodeLabel"><p>StationId</p></span></div></foreignObject></g><g class="label attribute-keys" transform="translate(103.203125, -12)" style=""><foreignObject width="0" height="0"><div xmlns="http://www.w3.org/1999/xhtml" style="display: table-cell; white-space: nowrap; line-height: 1.5; max-width: 100px; text-align: start;"><span class="nodeLabel"></span></div></foreignObject></g><g class="label attribute-comment" transform="translate(146.34375, -12)" style=""><foreignObject width="0" height="0"><div xmlns="http://www.w3.org/1999/xhtml" style="display: table-cell; white-space: nowrap; line-height: 1.5; max-width: 100px; text-align: start;"><span class="nodeLabel"></span></div></foreignObject></g><g class="label attribute-type" transform="translate(-121.34375, 30.75)" style=""><foreignObject width="65.3125" height="24"><div xmlns="http://www.w3.org/1999/xhtml" style="display: table-cell; white-space: nowrap; line-height: 1.5; max-width: 155px; text-align: start;"><span class="nodeLabel"><p>datetime</p></span></div></foreignObject></g><g class="label attribute-name" transform="translate(-31.03125, 30.75)" style=""><foreignObject width="78.625" height="24"><div xmlns="http://www.w3.org/1999/xhtml" style="display: table-cell; white-space: nowrap; line-height: 1.5; max-width: 171px; text-align: start;"><span class="nodeLabel"><p>Timestamp</p></span></div></foreignObject></g><g class="label attribute-keys" transform="translate(103.203125, 30.75)" style=""><foreignObject width="0" height="0"><div xmlns="http://www.w3.org/1999/xhtml" style="display: table-cell; white-space: nowrap; line-height: 1.5; max-width: 100px; text-align: start;"><span class="nodeLabel"></span></div></foreignObject></g><g class="label attribute-comment" transform="translate(146.34375, 30.75)" style=""><foreignObject width="0" height="0"><div xmlns="http://www.w3.org/1999/xhtml" style="display: table-cell; white-space: nowrap; line-height: 1.5; max-width: 100px; text-align: start;"><span class="nodeLabel"></span></div></foreignObject></g><g class="label attribute-type" transform="translate(-121.34375, 73.5)" style=""><foreignObject width="30.8125" height="24"><div xmlns="http://www.w3.org/1999/xhtml" style="display: table-cell; white-space: nowrap; line-height: 1.5; max-width: 130px; text-align: start;"><span class="nodeLabel"><p>bool</p></span></div></foreignObject></g><g class="label attribute-name" transform="translate(-31.03125, 73.5)" style=""><foreignObject width="47.171875" height="24"><div xmlns="http://www.w3.org/1999/xhtml" style="display: table-cell; white-space: nowrap; line-height: 1.5; max-width: 146px; text-align: start;"><span class="nodeLabel"><p>Passed</p></span></div></foreignObject></g><g class="label attribute-keys" transform="translate(103.203125, 73.5)" style=""><foreignObject width="0" height="0"><div xmlns="http://www.w3.org/1999/xhtml" style="display: table-cell; white-space: nowrap; line-height: 1.5; max-width: 100px; text-align: start;"><span class="nodeLabel"></span></div></foreignObject></g><g class="label attribute-comment" transform="translate(146.34375, 73.5)" style=""><foreignObject width="0" height="0"><div xmlns="http://www.w3.org/1999/xhtml" style="display: table-cell; white-space: nowrap; line-height: 1.5; max-width: 100px; text-align: start;"><span class="nodeLabel"></span></div></foreignObject></g><g class="label attribute-type" transform="translate(-121.34375, 116.25)" style=""><foreignObject width="40.375" height="24"><div xmlns="http://www.w3.org/1999/xhtml" style="display: table-cell; white-space: nowrap; line-height: 1.5; max-width: 136px; text-align: start;"><span class="nodeLabel"><p>string</p></span></div></foreignObject></g><g class="label attribute-name" transform="translate(-31.03125, 116.25)" style=""><foreignObject width="109.234375" height="24"><div xmlns="http://www.w3.org/1999/xhtml" style="display: table-cell; white-space: nowrap; line-height: 1.5; max-width: 206px; text-align: start;"><span class="nodeLabel"><p>PluginSummary</p></span></div></foreignObject></g><g class="label attribute-keys" transform="translate(103.203125, 116.25)" style=""><foreignObject width="0" height="0"><div xmlns="http://www.w3.org/1999/xhtml" style="display: table-cell; white-space: nowrap; line-height: 1.5; max-width: 100px; text-align: start;"><span class="nodeLabel"></span></div></foreignObject></g><g class="label attribute-comment" transform="translate(146.34375, 116.25)" style=""><foreignObject width="0" height="0"><div xmlns="http://www.w3.org/1999/xhtml" style="display: table-cell; white-space: nowrap; line-height: 1.5; max-width: 100px; text-align: start;"><span class="nodeLabel"></span></div></foreignObject></g><g class="divider"><path d="M-133.84375 -106.875 C-65.9068159907215 -106.875, 2.0301180185570047 -106.875, 133.84375 -106.875 M-133.84375 -106.875 C-61.953277757650866 -106.875, 9.937194484698267 -106.875, 133.84375 -106.875" stroke="#ccc" stroke-width="1.3" fill="none" stroke-dasharray="0 0"/></g><g class="divider"><path d="M-43.53125 -106.875 C-43.53125 -22.09606909288742, -43.53125 62.68286181422516, -43.53125 149.625 M-43.53125 -106.875 C-43.53125 -7.148956006892234, -43.53125 92.57708798621553, -43.53125 149.625" stroke="#ccc" stroke-width="1.3" fill="none" stroke-dasharray="0 0"/></g><g class="divider"><path d="M90.703125 -106.875 C90.703125 -38.687160174588655, 90.703125 29.50067965082269, 90.703125 149.625 M90.703125 -106.875 C90.703125 -6.465071684535673, 90.703125 93.94485663092865, 90.703125 149.625" stroke="#ccc" stroke-width="1.3" fill="none" stroke-dasharray="0 0"/></g><g class="divider"><path d="M-133.84375 -106.875 C-59.92368695039656 -106.875, 13.996376099206884 -106.875, 133.84375 -106.875 M-133.84375 -106.875 C-48.914712206768726 -106.875, 36.01432558646255 -106.875, 133.84375 -106.875" stroke="#ccc" stroke-width="1.3" fill="none" stroke-dasharray="0 0"/></g></g></g></g></g></svg>